<?xml version="1.0" standalone="yes"?>
<svg xmlns="http://www.w3.org/2000/svg" width="868" height="447">
<path style="fill:#ffffff; stroke:none;" d="M0 0L0 409L3 408C0.775583 395.838 6.9288 384.85 11.5725 374C26.4919 339.14 56.7994 310.376 88 289.667C97.8191 283.15 108.159 277.218 119 272.579C121.796 271.382 127.506 267.628 130.593 269.238C132.324 270.141 132.128 272.369 132.282 274.005C132.659 278.029 133.566 281.996 134.13 286C136.425 302.281 140.698 318.634 142 335C128.831 337.538 114.456 346.918 103 353.656C76.4203 369.289 51.2552 386.269 30.0895 409C20.4969 419.302 7.95582 432.905 5 447L868 447L868 115C865.097 121.919 867 132.52 867 140L867 196L867 390L396 390C345.66 390 295.384 389 245 389L201 389C191.705 389 182.168 388.298 173 390C177.247 385.285 182.04 386 188 386L218 386L345 386L862 386L862 177L862 129C862 123.153 859.884 113.737 868 114L868 0L79 0C79.9749 13.3426 81.6576 26.6216 81.9853 40C82.1854 48.1684 80.7531 59.2692 83.6034 67C85.4077 71.8936 90.6759 74.4116 92.9722 79C94.576 82.2048 93.6274 85.8753 95.6034 89C98.1691 93.0572 102.448 96.0284 106 99.1551C112.344 104.74 118.694 110.704 125.576 115.625C130.64 119.247 139.267 123.281 140.663 130C142.951 141.012 128.081 140.368 124.067 146.638C122.727 148.732 123.762 151.713 123.91 154C124.215 158.68 123.609 163.311 124 168L138 172C137.149 176.34 138.896 180.553 139 185C110.513 187.248 82.3227 196.76 59 213.427C52.5821 218.014 45.8711 222.867 40.0039 228.129C33.9529 233.555 29.1474 239.869 22 244C23.547 236.023 24.8465 227.897 26.7415 220C27.707 215.977 29.9848 210.127 29.1003 206C27.1812 197.045 16.829 196.231 12.7739 189.786C11.129 187.172 12.2043 183.709 13.0401 181C15.7615 172.179 23.1493 168.545 32 170L32 154C31.9952 151.651 32.3788 148.682 30.9722 146.633C27.2306 141.185 13.9159 138.559 15.3765 130.039C16.2292 125.066 23.4605 121.052 27 118C35.2108 110.921 43.8066 104.405 52 97.2894C55.0692 94.6237 59.0836 92.3172 61.3966 88.9105C63.4147 85.9381 62.4221 82.4104 63.858 79.2855C66.0491 74.5171 71.5519 72.0042 73.3966 67C75.4611 61.3997 73.6859 53.8945 74.0895 48C75.1971 31.8264 76 16.2031 76 0L0 0z"/>
<path style="fill:#043480; stroke:none;" d="M76 0C76 15.8422 75.1707 31.2114 74.0895 47C73.6859 52.8945 75.4611 60.3997 73.3966 66C71.5492 71.0116 66.0907 73.6387 63.858 78.4244C62.4164 81.5143 63.3583 84.9911 61.3966 87.9606C58.8749 91.7779 54.4049 94.3322 51 97.2894C43.1388 104.117 34.8876 110.355 27 117.13C23.3336 120.28 16.5601 124.123 15.3225 129.09C12.8041 139.196 26.9217 141.001 30.9722 147.39C34.2227 152.517 32 164.053 32 170C22.2737 167.766 14.9098 172.484 12.4784 182C11.8726 184.371 10.9301 187.455 12.1173 189.786C13.4606 192.424 16.6961 193.28 18.9961 194.814C22.7434 197.314 28.0036 202.329 28.7353 207C29.378 211.103 27.3894 216.039 26.4992 220C24.7327 227.861 23.0314 236.013 22 244C29.4901 241.098 34.2935 234.41 40.0039 229.053C46.6283 222.839 54.5213 217.189 62 212.025C85.1404 196.048 111.411 188.487 139 185C138.961 180.602 137.701 176.347 138 172C133.383 170.222 128.921 168.663 124 168C123.824 163.328 124.133 158.668 123.961 154C123.874 151.615 123.076 148.685 124.693 146.638C129.729 140.262 144.973 140.339 140.397 128.004C138.066 121.722 130.503 118.786 125.576 114.988C115.978 107.589 104.998 99.2498 97.1481 89.9992C93.8562 86.1197 95.0588 82.1695 92.9722 78C90.6759 73.4116 85.4077 70.8936 83.6034 66C80.6119 57.8864 82.3353 46.5549 81.9606 38C81.4353 26.0024 78.7277 12.9203 80 1L76 0z"/>
<path style="fill:#043382; stroke:none;" d="M78 23C78 32.3816 77.1148 41.6749 77.0039 51C76.9455 55.9081 78.1164 62.3346 76.3966 67C74.5012 72.1416 69.0127 75.1935 66.4336 80C64.5652 83.4821 65.3988 87.4655 62.6821 90.5717C53.7102 100.83 40.538 108.939 30 117.576C26.1863 120.701 19.5273 124.243 17.7616 129.09C14.3325 138.502 29.4333 140.21 33.3966 145.275C36.6558 149.439 35.1996 158.976 34.9807 163.999C34.5656 173.525 25.1632 170.8 19.2276 174.938C16.0659 177.141 14.8694 182.31 14.5224 185.957C14.1041 190.352 17.8291 191.479 21.0008 193.468C24.8805 195.9 30.4381 199.879 31.6782 204.576C32.5743 207.969 30.6428 212.688 29.8812 216C28.2089 223.273 26.062 230.506 26 238C36.8768 230.345 46.056 220.234 57 212.57C80.0796 196.408 108.459 184.236 137 184C136.822 179.869 136.708 174.888 132.853 172.417C130.074 170.637 125.94 170.804 123.6 168.411C119.948 164.679 120.571 154.787 121.109 150.001C121.888 143.061 128.629 140.798 133.956 137.741C137.233 135.86 139.917 133.017 137.957 129.039C136.362 125.803 132.696 123.495 130 121.247L114 107.92C107.511 102.505 97.2235 96.6237 92.8889 89.2816C91.0294 86.1319 92.3136 82.2606 90.2577 79.0146C87.8253 75.1742 83.3755 73.1095 81.3179 68.9854C79.3839 65.1089 80 60.1935 80 56C80 49.2511 79.3329 42.7047 79.0394 36C78.8504 31.684 79.6894 27.0261 78 23z"/>
<path style="fill:#043480; stroke:none;" d="M862 386L340 386L214 386L185 386C179.996 386 175.846 385.36 173 390C197.498 386.904 223.302 389 248 389C298.722 389 349.315 390 400 390L867 390L867 204L867 146C867 135.637 865.591 124.117 868 114C859.81 112.623 862 122.349 862 128L862 177L862 386M172 167L172 299C196.459 299 224.705 302.844 247 290.485C270.898 277.238 278.46 255.214 277.824 229.439C277.705 224.634 278.316 218.594 277.107 214C272.953 198.215 260.667 184.272 247 175.803C234.899 168.305 221.475 168.204 208 167.871C196.015 167.575 184.044 167 172 167M474 168C476.831 179.891 474.566 192.974 474.039 205C473.196 224.255 474 243.725 474 263L474 288C474 290.693 473.228 295.124 475.028 297.397C477.927 301.058 489.718 299 494 299L494 241L544 242C544 237.826 545.511 227.958 542.958 224.603C540.703 221.639 533.255 223 530 223L494 223L494 186L553 186C553 179.757 553.778 173.014 552 167C545.355 168.096 538.682 166.925 532 167.054C512.711 167.426 493.284 166.491 474 168z"/>
<path style="fill:#043382; stroke:none;" d="M175 170L175 296C191.359 296 209.898 298.433 226 295.535C238.111 293.356 250.227 286.436 258.996 277.961C265.633 271.547 274.84 258.8 273 249C278.072 245.366 274.666 236.279 275.134 231C277.012 209.843 262.898 188.116 244.741 178.042C238.768 174.728 230.011 174.391 225 170L215.996 169.343L175 170M477 170L477 296L491 296L491 255C491 251.12 489.593 243.614 492.603 240.603C495.479 237.728 502.306 239 506 239L541 239C541.011 234.92 541.49 231.037 542 227L492 227C492 217.391 492.567 207.587 491.91 198C491.639 194.042 489.71 188.754 492.603 185.318C495.803 181.518 503.596 183 508 183C522.007 183 536.011 183.107 550 183L550 170L477 170z"/>
<path style="fill:#043480; stroke:none;" d="M190 184C191.982 192.324 191 201.482 191 210L191 255L191 274C191.005 276.236 190.532 279.508 192.028 281.397C194.565 284.6 203.368 283 207 283C223.453 283 237.472 280.171 248.699 267C267.763 244.635 262.887 202.438 235.985 188.374C221.949 181.036 205.256 184 190 184z"/>
<path style="fill:#ffffff; stroke:none;" d="M193 186L193 280C202.081 280 212.047 281.15 221 279.535C227.943 278.284 234.304 274.675 241 273C245.926 266 252.193 260.365 255.046 252C263.62 226.855 253.264 198.273 228.285 187.613C216.846 182.731 204.876 185.902 193 186z"/>
<path style="fill:#043480; stroke:none;" d="M734 224C727.123 228.663 728 239.611 728 247C728 270.543 741.09 293.74 766 298.686C777.031 300.876 789.224 300.253 800 296.961C809.259 294.132 815.53 287.923 821.96 281C841.288 260.188 834.593 222.317 814 205.329C804.645 197.611 790.987 194.079 779 194.079C765.076 194.079 749.442 201.147 740.665 212.004C737.703 215.667 734.199 219.205 734 224M293 196L293 299L355 299L355 281L311 282L311 254L347 255L347 238L311 238L311 213L355 214L355 196L293 196M373 196C370.636 203.999 372 213.688 372 222L372 273C372 279 371.959 285.001 372.001 291C372.016 293.209 371.639 296.417 373.603 297.972C376.85 300.544 385.071 299 389 299L430 299L430 281L390 281L390 196C384.361 196 378.617 196.409 373 196M570 274L595 274C598.387 274 602.818 273.307 605.892 275.028C613.43 279.248 611.175 291.668 616.843 297.397C620.428 301.021 631.234 299 636 299C635.799 289.548 630.861 280.652 627.4 272C620.611 255.028 612.629 238.226 606.583 221C604.478 215.001 602.494 208.929 600.185 203.001C598.921 199.754 597.726 196.773 593.956 196.148C590.438 195.565 584.298 195.222 581.395 197.603C577.516 200.787 575.927 209.453 573.875 213.996C565.483 232.576 559.469 252.176 551.576 271C549.035 277.06 546.134 282.951 543.579 289C542.659 291.178 540.824 294.236 541.708 296.682C542.992 300.233 550.117 299.019 553 298.999C555.161 298.984 557.701 299.201 559.606 297.972C561.922 296.479 562.817 293.412 563.799 291C566.069 285.428 568.974 279.956 570 274M646 196L646 299L665 299L665 258C667.892 258.002 671.271 257.603 673.91 259.028C677.318 260.868 679.629 264.958 681.849 268C686.697 274.645 691.723 281.182 696.327 287.996C698.316 290.939 700.54 295.829 703.546 297.836C708.246 300.975 718.518 299 724 299C721.654 291.638 716.137 285.25 711.71 279C705.899 270.797 700.61 262.243 695 254C717.742 247.777 722.33 215.221 702.999 201.649C696.623 197.172 689.367 197.415 682 196.91C669.983 196.087 658.072 196 646 196z"/>
<path style="fill:#043382; stroke:none;" d="M734 225C734.046 230.511 731.085 235.557 730.3 241C728.548 253.159 731.685 267.005 738.928 277C760.432 306.672 812.836 304.002 826.932 268C829.439 261.596 830 255.807 830 249C830 243.772 830.617 238.089 829.214 233C821.987 206.769 794.831 192.807 769 197.465C751.571 200.607 745.386 213.779 734 225M296 199L296 296L352 296L352 284L323 284C319.611 284 314.287 284.954 311.318 282.972C309.288 281.618 309.116 279.218 309.019 276.999C308.774 271.37 308.899 265.634 309.005 260C309.051 257.516 308.998 254.576 311.318 253.028C313.882 251.317 318.083 252 321 252L344 252L344 241L321 241C318.083 241 313.882 241.683 311.318 239.972C306.733 236.913 308.806 222.898 309.019 218.001C309.116 215.782 309.288 213.382 311.318 212.028C314.287 210.046 319.611 211 323 211L352 211L352 199L296 199M375 199L375 296L427 296L427 284L399 284C395.899 284 391.029 284.822 388.603 282.397C384.748 278.541 387 266.101 387 261L387 199L375 199M582 199C581.611 202.776 580.694 205.301 578 208C578.06 214.482 573.896 219.977 572.015 226C566.901 242.366 559.364 258.089 553 274C550.155 281.112 546.303 288.432 545 296C548.909 296 555.188 297.177 558.606 294.972C560.923 293.478 561.784 290.447 562.656 288C564.651 282.403 567.128 276.902 568 271C580.718 271 596.799 273.606 609 270C610.461 276.166 613.158 282.086 615.424 288C616.33 290.363 617.186 293.495 619.418 294.972C622.78 297.196 629.132 296 633 296C624.977 272.285 613.863 249.62 605.684 226C603.453 219.555 600.784 213.268 598.081 207C597.124 204.78 596.336 201.537 594.301 200.028C591.392 197.87 585.437 199 582 199M649 199L649 296L662 296L662 278L662 267C662 264.083 661.317 259.882 663.028 257.318C665.75 253.238 674.436 254.575 677.572 257.318C685.856 264.566 691.294 276.135 697.71 284.996C699.842 287.941 702.5 292.957 705.546 294.987C708.861 297.196 715.175 296 719 296C714.131 285.752 706.528 276.331 700.103 267C697.964 263.894 692.79 259.48 692.666 255.468C692.555 251.862 698.558 250.142 700.985 248.648C706.063 245.524 710.407 239.74 712.061 234C713.166 230.165 713.27 225.913 712.532 222C706.911 192.193 671.219 199 649 199z"/>
<path style="fill:#043480; stroke:none;" d="M85 216C79.2209 216.615 73.627 220.717 69 224.13C62.1161 229.209 55.1029 233.974 49 240.004C34.3065 254.523 21.1399 271.366 14.0903 291C10.7086 300.418 10.9891 310.224 9.81559 320C8.7269 329.069 7.00102 337.769 7 347L12 345C13.3984 338.057 19.1859 332.781 23.8688 327.83C30.3636 320.964 36.2894 313.71 43 307C46.8736 303.127 52.2939 299.31 54 294C57.0887 293.708 58.0186 292.962 59 290C65.4274 288.96 70.404 282.746 76 279.529C87.5518 272.887 100.061 267.217 112 261.247C117.051 258.721 126.457 255.965 128.307 249.985C129.319 246.713 127.88 242.305 127.425 239C126.333 231.073 124.556 222.938 123.975 215C123.719 211.516 123.702 204.244 121.139 201.603C118.384 198.766 113.916 201.413 111 202.551C103.358 205.534 89.2851 208.583 85 216z"/>
<path style="fill:#043382; stroke:none;" d="M12 341C12 339.203 11.9857 339.479 11 338C15.791 334.919 19.1308 329.536 22.6211 325.08C27.1554 319.293 32.2181 313.441 37.1844 308.039C49.4726 294.674 66.4496 282.704 82 273.453C91.8999 267.563 102.699 262.904 113 257.753C116.955 255.776 123.65 253.812 125.968 249.787C128.069 246.139 126.037 239.9 125.41 236C123.591 224.673 122.124 213.275 120 202C107.512 203.844 96.6087 210.479 85.9105 216.691C55.026 234.625 26.1884 260.501 16.1404 296C13.1306 306.634 11.9992 317.158 10.5756 328C10.0422 332.063 8.64237 338.066 12 341z"/>
<path style="fill:#043480; stroke:none;" d="M774 209.529C767.074 211.117 758.281 215.071 753.301 220.185C740.725 233.099 740.111 260.529 752.329 273.895C761.184 283.583 777.408 287.332 790 284.61C827.713 276.457 822.912 216.091 787 209.616C782.822 208.862 778.171 208.573 774 209.529z"/>
<path style="fill:#ffffff; stroke:none;" d="M750 227C749.898 231.566 748.055 235.541 747.325 240C745.909 248.651 746.755 262.332 751.497 269.906C753.743 273.494 757.505 274.949 761 277.025C778.799 287.598 803.502 282.878 811.532 262C819.88 240.292 805.45 210.549 780 211.259C767.276 211.614 758.999 219.159 750 227M665 242C670.21 242.001 675.953 243.269 681 241.981C684.79 241.014 688.674 239.942 691.852 237.556C697.644 233.208 697.589 220.969 691.941 216.649C687.264 213.071 681.599 213.002 676 213C673.386 212.999 667.929 212.011 665.87 214.028C664.296 215.569 665.365 219.044 665.299 221C665.064 228.04 664.995 234.956 665 242M589 221C584.058 232.15 578.783 245.928 577 258L601 258C599.141 250.172 595.42 242.716 593.026 235C591.613 230.448 591.339 225.116 589 221z"/>
<path style="fill:#043480; stroke:none;" d="M3 408C-0.348497 410.171 0.00779657 413.213 0 417L0 438C0.0043478 440.112 -0.542276 447.609 3.62886 446.248C6.73925 445.234 10.0967 435.777 12.0355 433C19.8375 421.826 28.3537 411.631 38 402C57.5946 382.437 80.2753 367.61 104 353.656C115.774 346.731 128.911 339.133 142 335C141.3 318.738 136.648 302.127 134.272 286C133.686 282.028 132.781 278.011 132.556 274.005C132.466 272.404 132.845 270.185 131.358 269.071C128.333 266.804 121.842 270.93 119 272.15C107.81 276.956 97.1464 282.933 87 289.667C56.1024 310.174 26.3454 338.483 11.5725 373C6.91921 383.873 0.104207 395.803 3 408z"/>
<path style="fill:#043382; stroke:none;" d="M3 442C5.4217 438.624 6.56063 434.538 9.02546 431.09C17.8767 418.704 29.155 407.56 40 396.985C44.9937 392.116 57.4892 384.838 59 378C67.3207 376.516 71.646 369.811 78.5795 365.665C93.415 356.794 108.368 347.797 124 340.591C129.169 338.209 133.334 335.219 139 334C138.827 313.159 130.723 292.782 130 272C123.406 273.175 116.971 276.775 111 279.753C98.4537 286.011 86.9029 293.664 75.9606 302.353C46.1025 326.06 15.1675 356.283 5.89892 395C2.26759 410.169 3 426.522 3 442z"/>
<path style="fill:#043480; stroke:none;" d="M242 357C237.811 356.403 234.266 354.307 230 354C228.304 369.367 253.948 363.704 247.566 351.105C245.28 346.593 239.224 344.89 236 341C240.18 341.498 243.742 342.415 248 342C245.315 332.548 228.814 331.329 229.103 343C229.301 350.994 238.794 351.024 242 357M335 334.623C322.826 336.439 318.602 352.717 328.13 360.427C331.636 363.265 336.72 363.34 341 362.576C357.346 359.656 351.462 332.167 335 334.623M576 356C572.201 356.701 570.225 356.104 567 354C563.155 357.33 563.815 361.143 569.005 362.837C575.163 364.848 585.096 360.625 583.214 353.015C582.865 351.606 581.756 350.331 580.772 349.326C577.713 346.202 573.816 344.408 571 341C574.823 341.455 578.117 342.474 582 342C581.03 329.803 560.916 334.015 564.434 345.895C565.866 350.729 572.929 352.113 576 356M654 347L639 347L639 353L647 353C646.018 354.179 645.347 355.382 643.862 356.016C631.649 361.233 629.432 339.89 641.001 341.643C643.739 342.058 646.411 344.028 649 345C651.915 338.509 646.747 334.013 640 334.278C633.669 334.526 627.921 338.718 626.548 345C623.522 358.844 640.583 371.372 650.661 358.971C653.398 355.603 653.89 351.173 654 347M748 334.533C738.739 336.316 733.358 348.27 738.182 356.718C741.397 362.347 748.031 363.881 754 362.656C770.639 359.239 765.086 331.245 748 334.533z"/>
<path style="fill:#043382; stroke:none;" d="M193 363L200 363C200.82 359.066 204.202 354.633 208.701 357.689C210.572 358.96 211.184 361.397 213.294 362.397C214.996 363.203 217.178 362.978 219 363C217.823 356.16 214.656 349.524 212.308 343C211.405 340.49 210.471 336.739 207.726 335.623C204.162 334.173 201.469 337.154 200.055 340.019C196.713 346.789 193.346 355.449 193 363z"/>
<path style="fill:#043480; stroke:none;" d="M262 335L263 363C268.437 363 273.612 362.681 279 362L279 358C275.637 357.375 272.422 357.028 269 357L269 352L278 352C277.54 346.093 274.262 346.019 269 346C268.824 344.122 268.562 342.801 268 341C270.615 341 274.266 341.593 276.677 340.397C278.846 339.322 278.847 336.677 276.677 335.603C272.877 333.72 266.172 335 262 335M304 354L304 356C300.201 356.701 298.225 356.104 295 354C292.956 355.624 292.104 356.643 291 359C293.733 360.801 296.668 363.04 300 363.513C305.878 364.348 312.845 359.34 311.257 353.015C309.768 347.083 302.807 345.983 300 341L308 343C313.723 330.364 286.169 333.161 293.029 345.907C293.949 347.617 295.486 348.824 297.018 349.956C299.212 351.578 301.547 352.84 304 354M363 335L364 363C370.364 362.504 369.996 358.472 370 353C373.894 358.355 375.823 362.766 383 363C382.372 359.519 379.989 356.419 379.583 353C379.167 349.489 382.089 346.587 381.797 343C381.023 333.491 369.673 335 363 335M396 335L396 363C402.106 363 407.946 362.765 414 362L414 358C410.299 357.313 406.763 357.01 403 357L403 352L413 352L413 346L403 346L403 341C405.615 341 409.266 341.593 411.677 340.397C413.846 339.322 413.847 336.677 411.677 335.603C407.655 333.61 400.423 335 396 335M439 357C435.106 356.602 431.735 355.065 428 354C426.358 368.883 451.152 364.015 444.566 351.104C443.719 349.444 442.44 348.309 440.942 347.244C438.483 345.495 435.756 344.187 433 343C436.25 341.432 439.821 343.216 442.663 341.763C445.344 340.392 443.793 337.201 441.847 336.028C435.436 332.162 425.429 336.942 427.323 344.996C428.781 351.199 436.221 351.821 439 357M477 336C478.74 344.004 477 353.721 477 362C483.054 362.765 488.894 363 495 363L495 357L484 357C483.824 355.122 483.562 353.801 483 352C486.422 351.972 489.637 351.625 493 351C491.088 346.494 488.676 346.055 484 346C483.824 344.122 483.562 342.801 483 341L495 341C493.334 333.341 483.092 334.199 477 336M515 363L515 347C519.473 354.282 522.536 362.771 532 363L532 345C531.999 342.495 532.604 338.739 530.977 336.603C529.774 335.025 527.758 335.137 526 335L526 351L520.667 343C519.576 341.37 518.545 339.62 517.24 338.148C515.564 336.258 512.185 333.957 510.028 336.608C508.361 338.656 509.001 342.56 509 345C508.997 351.576 506.301 362.322 515 363M596 335L596 363L614 363L614 357L603 357L602 353L613 351C611.994 349.269 611.453 347.947 611 346L603 346L603 341C605.615 341 609.266 341.593 611.677 340.397C613.846 339.322 613.847 336.677 611.677 335.603C607.655 333.61 600.423 335 596 335M666 335C666 339.375 665.985 343.658 666.576 348C666.98 350.963 666.969 354.169 668.032 356.995C670.635 363.913 681.151 364.951 686.468 360.296C691.027 356.304 690.011 349.422 690 344C689.995 341.792 690.461 338.603 688.974 336.742C687.562 334.976 685.014 335.112 683 335L683 344C683 347.041 683.623 351.121 681.972 353.847C679.812 357.415 675.796 356.146 674.028 352.941C670.172 345.952 677.429 335.633 666 335M703 335C704.208 344.563 703.754 353.443 703 363L710 363C709.992 359.831 709.9 357.041 709 354L713 353C715.287 360.238 717.612 363.084 725 364C724.616 358.716 721.717 355.368 719 351C724.892 348.98 724.929 339.733 719.721 336.457C715.317 333.685 707.982 335 703 335M788 354L788 356L787 357C784.963 356.234 782.17 354.369 779.94 354.581C774.314 355.117 778.326 360.855 781.02 362.262C788.63 366.234 798.979 358.842 794.486 350.329C792.183 345.964 786.472 345.356 784 341C787.863 341.761 791.04 342.386 795 342C793.019 329.47 770.099 334.867 777.603 346.816C778.411 348.102 779.821 349.072 781.018 349.956C783.212 351.578 785.547 352.84 788 354z"/>
<path style="fill:#ffffff; stroke:none;" d="M336.036 341.542C326.471 342.884 328.302 359.133 337.995 357.172C346.554 355.441 344.887 340.3 336.036 341.542M710 341C710.197 347.007 714.457 349.644 717 343C714.627 341.988 712.551 341.378 710 341M746 345C742.205 347.472 743.706 350.977 744 355C745.684 355.809 747.12 356.588 749.024 356.753C755.91 357.349 760.492 347.627 755.296 342.742C752.05 339.69 746.829 340.892 746 345M370 342L370 347C376.658 346.491 376.796 342.226 370 342M205 348L203 352C205.492 351.03 206.146 350.525 207 348L205 348M0 446L1 447L0 446z"/>
</svg>
